<svg width="57" height="55" viewBox="0 0 57 55" fill="none" xmlns="http://www.w3.org/2000/svg">
<g clip-path="url(#clip0_1_499)">
<path d="M47.0701 0H9.36992C4.19506 0 0 4.18614 0 9.35V45.562C0 50.7259 4.19506 54.912 9.36992 54.912H47.0701C52.2449 54.912 56.44 50.7259 56.44 45.562V9.35C56.44 4.18614 52.2449 0 47.0701 0Z" fill="#00005B"/>
<path d="M22.6737 32.8533H13.9275L12.1478 38.3799C12.125 38.4746 12.0716 38.5592 11.9959 38.6207C11.9202 38.6822 11.8263 38.7172 11.7287 38.7202L7.26379 38.72C7.01098 38.72 6.92265 38.5814 6.99878 38.3042L14.5712 16.6322L14.6468 16.4045L14.672 16.3266L14.7227 16.1638C14.7478 16.0798 14.773 15.9907 14.7983 15.8941C14.8975 15.3901 14.9482 14.8777 14.9498 14.364C14.9447 14.3281 14.948 14.2915 14.9595 14.2571C14.971 14.2227 14.9904 14.1914 15.0161 14.1658C15.0418 14.1401 15.0731 14.1208 15.1076 14.1093C15.1421 14.0978 15.1788 14.0945 15.2148 14.0996H21.2349C21.4113 14.0996 21.5122 14.1626 21.5378 14.2886L30.1323 38.3423C30.208 38.5942 30.1323 38.7202 29.9053 38.72H24.9831C24.8986 38.7292 24.8136 38.7075 24.744 38.6588C24.6743 38.6102 24.6248 38.538 24.6045 38.4556L22.6737 32.8533ZM15.2906 28.1934H21.2728L21.1875 27.9125L21.0506 27.4677L20.8502 26.8305L20.4655 25.6278L20.099 24.4719L19.4173 22.3183C19.229 21.7239 19.0482 21.127 18.875 20.528L18.6814 19.8469L18.4724 19.1004L18.2815 18.4081H18.2436C18.0541 19.3149 17.8234 20.2127 17.5522 21.0987L17.2964 21.9177L16.6813 23.8977L16.3696 24.9064C16.3133 25.0886 16.2571 25.2687 16.2009 25.4467L16.0334 25.9743L15.8667 26.4895L15.7009 26.992L15.536 27.482C15.4538 27.724 15.372 27.9611 15.2906 28.1934ZM44.0658 30.7023H36.6071C36.6983 31.4387 36.9434 32.1478 37.3265 32.7837C37.7498 33.4136 38.3486 33.9061 39.049 34.2005C39.9982 34.6106 41.0249 34.8114 42.059 34.7893C42.8795 34.7734 43.6968 34.6839 44.5012 34.5217C45.2205 34.4249 45.9255 34.2416 46.6007 33.9757C46.727 33.8752 46.7902 33.9382 46.7903 34.1645V37.7538C46.7965 37.8517 46.7769 37.9493 46.7332 38.0371C46.69 38.1058 46.6318 38.1638 46.563 38.2072C45.814 38.5382 45.0257 38.7726 44.2172 38.9046C43.1189 39.1103 42.0026 39.2052 40.8853 39.1877C39.1489 39.1877 37.6852 38.9278 36.4942 38.4078L36.3796 38.3566C35.2346 37.8534 34.2233 37.0901 33.4266 36.1275C32.6823 35.2206 32.1286 34.1734 31.7984 33.0484C31.4717 31.9379 31.3061 30.7865 31.3066 29.6292C31.303 28.3654 31.5011 27.1092 31.8935 25.9076C32.2713 24.7356 32.8687 23.6459 33.6539 22.6963C34.4287 21.758 35.3973 20.9976 36.4935 20.467C37.604 19.9258 38.9167 19.7316 40.4311 19.7316C41.6871 19.7002 42.9346 19.9453 44.0849 20.4494C45.0521 20.861 45.9035 21.5027 46.5648 22.3183C47.1853 23.1169 47.6595 24.0186 47.9656 24.9819C48.2638 25.9101 48.417 26.8786 48.42 27.8533C48.42 28.4077 48.4011 28.9115 48.3634 29.3647L48.3296 29.7528L48.2943 30.1211L48.2734 30.3076L48.2686 30.347C48.2587 30.4303 48.2186 30.5071 48.1558 30.5628C48.093 30.6185 48.012 30.6493 47.9279 30.6493L47.8241 30.6515L47.6947 30.6581L47.5939 30.6654L47.3585 30.6854L47.1517 30.7058C47.0954 30.7117 47.0369 30.7172 46.9764 30.7223L46.7888 30.7371L46.5884 30.7503L46.3756 30.7613L46.1503 30.7707L46.0328 30.7747L45.7887 30.7813C45.5473 30.7872 45.2999 30.7723 45.0462 30.7538L44.6612 30.7256C44.4631 30.7112 44.2644 30.7034 44.0658 30.7023ZM36.6073 27.2604H41.7632L42.2024 27.2576L42.5009 27.2534L42.6942 27.249L42.9112 27.2415C43.1053 27.2221 43.2928 27.1602 43.4601 27.06V26.8334C43.4527 26.5379 43.4017 26.2451 43.3089 25.9644C43.1046 25.3198 42.6939 24.76 42.1399 24.3709C41.5859 23.9818 40.9192 23.7849 40.2422 23.8106C39.6049 23.7722 38.9703 23.9197 38.4156 24.235C37.8609 24.5503 37.4102 25.0199 37.1183 25.5864C36.8588 26.1134 36.6863 26.6786 36.6073 27.2604Z" fill="#9999FF"/>
</g>
<defs>
<clipPath id="clip0_1_499">
<rect width="56.44" height="55" fill="white"/>
</clipPath>
</defs>
</svg>
