<svg width="55" height="55" viewBox="0 0 55 55" fill="none" xmlns="http://www.w3.org/2000/svg">
<g clip-path="url(#clip0_15_306)">
<path d="M42.1094 0H12.8906C5.77133 0 0 5.77133 0 12.8906V42.1094C0 49.2287 5.77133 55 12.8906 55H42.1094C49.2287 55 55 49.2287 55 42.1094V12.8906C55 5.77133 49.2287 0 42.1094 0Z" fill="#0277BD"/>
<path d="M11.5485 22.0539L12.1634 28.9165H27.5206V22.0539H11.5485ZM27.5204 8.16406H10.3125L10.9364 15.0266H27.5204V8.16406ZM27.5204 47.0166V39.8767L27.4903 39.8847L19.8475 37.8211L19.3589 32.3477H12.47L13.4314 43.123L27.4888 47.0254L27.5204 47.0166Z" fill="#EBEBEB"/>
<path d="M35.9472 28.9165L35.1506 37.8166L27.4968 39.8825V47.022L41.5654 43.123L41.6685 41.9635L43.2811 23.8969L43.4485 22.0539L44.6875 8.16406H27.4968V15.0266H37.1667L36.5423 22.0539H27.4968V28.9165H35.9472Z" fill="white"/>
</g>
<defs>
<clipPath id="clip0_15_306">
<rect width="55" height="55" fill="white"/>
</clipPath>
</defs>
</svg>
