<svg width="58" height="55" viewBox="0 0 58 55" fill="none" xmlns="http://www.w3.org/2000/svg">
<g clip-path="url(#clip0_1_508)">
<path d="M43.9606 0H13.6794C6.3012 0 0.320007 5.77133 0.320007 12.8906V42.1094C0.320007 49.2287 6.3012 55 13.6794 55H43.9606C51.3388 55 57.32 49.2287 57.32 42.1094V12.8906C57.32 5.77133 51.3388 0 43.9606 0Z" fill="#242938"/>
<mask id="mask0_1_508" style="mask-type:luminance" maskUnits="userSpaceOnUse" x="13" y="6" width="31" height="43">
<path d="M13.902 6.01562H43.5955V48.9844H13.902V6.01562Z" fill="white"/>
</mask>
<g mask="url(#mask0_1_508)">
<path d="M21.3269 48.9844C25.4237 48.9844 28.7487 45.7761 28.7487 41.823V34.6614H21.3269C17.23 34.6614 13.9048 37.8699 13.9048 41.823C13.9048 45.7761 17.23 48.9844 21.3269 48.9844Z" fill="#0ACF83"/>
<path d="M13.9048 27.5C13.9048 23.5469 17.23 20.3386 21.3269 20.3386H28.7487V34.6614H21.3269C17.23 34.6614 13.9048 31.4531 13.9048 27.5Z" fill="#A259FF"/>
<path d="M13.9048 13.177C13.9048 9.22389 17.23 6.01562 21.3269 6.01562H28.7487V20.3386H21.3269C17.23 20.3386 13.9048 17.1301 13.9048 13.177Z" fill="#F24E1E"/>
<path d="M28.7488 6.01562H36.1706C40.2675 6.01562 43.5926 9.22389 43.5926 13.177C43.5926 17.1301 40.2675 20.3386 36.1706 20.3386H28.7488V6.01562Z" fill="#FF7262"/>
<path d="M43.5926 27.5C43.5926 31.4531 40.2675 34.6614 36.1706 34.6614C32.0737 34.6614 28.7488 31.4531 28.7488 27.5C28.7488 23.5469 32.0737 20.3386 36.1706 20.3386C40.2675 20.3386 43.5926 23.5469 43.5926 27.5Z" fill="#1ABCFE"/>
</g>
</g>
<defs>
<clipPath id="clip0_1_508">
<rect width="57" height="55" fill="white" transform="translate(0.320007)"/>
</clipPath>
</defs>
</svg>
