<svg width="55" height="55" viewBox="0 0 55 55" fill="none" xmlns="http://www.w3.org/2000/svg">
<g clip-path="url(#clip0_15_301)">
<path d="M42.1094 0H12.8906C5.77133 0 0 5.77133 0 12.8906V42.1094C0 49.2287 5.77133 55 12.8906 55H42.1094C49.2287 55 55 49.2287 55 42.1094V12.8906C55 5.77133 49.2287 0 42.1094 0Z" fill="#E14E1D"/>
<path d="M10.3125 8.16406L12.1623 28.9165H35.9477L35.1495 37.8174L27.4912 39.8881L19.8473 37.8204L19.3362 32.1052H12.448L13.4331 43.1226L27.4897 47.0267L41.5641 43.1226L43.4511 22.0548H18.4387L17.8108 15.0272H44.0728L44.6875 8.16406H10.3125Z" fill="white"/>
<path d="M27.5 8.16406H10.3125L12.1623 28.9165H27.5V22.0548H18.4388L17.8108 15.0272H27.5V8.16406ZM27.5 39.8851L27.4912 39.8881L19.8473 37.8204L19.3362 32.1052H12.448L13.4331 43.1226L27.4897 47.0267L27.5002 47.0237L27.5 39.8851Z" fill="#EBEBEB"/>
</g>
<defs>
<clipPath id="clip0_15_301">
<rect width="55" height="55" fill="white"/>
</clipPath>
</defs>
</svg>
