<svg width="55" height="55" viewBox="0 0 55 55" fill="none" xmlns="http://www.w3.org/2000/svg">
<g clip-path="url(#clip0_15_311)">
<path d="M42.1094 0H12.8906C5.77133 0 0 5.77133 0 12.8906V42.1094C0 49.2287 5.77133 55 12.8906 55H42.1094C49.2287 55 55 49.2287 55 42.1094V12.8906C55 5.77133 49.2287 0 42.1094 0Z" fill="#F0DB4F"/>
<path d="M14.4616 45.962L18.6704 43.4148C19.4825 44.8544 20.2211 46.0726 21.9929 46.0726C23.6913 46.0726 24.762 45.4083 24.762 42.8242V25.2504H29.9308V42.8972C29.9308 48.2505 26.7928 50.6872 22.2144 50.6872C18.0798 50.6872 15.6797 48.5459 14.4614 45.9615M32.7381 45.4081L36.9465 42.9715C38.0544 44.7807 39.4943 46.1098 42.0415 46.1098C44.1833 46.1098 45.5488 45.039 45.5488 43.5621C45.5488 41.7901 44.1459 41.1623 41.783 40.1289L40.4912 39.5749C36.7621 37.9876 34.2884 35.9938 34.2884 31.7851C34.2884 27.9084 37.2421 24.9547 41.8572 24.9547C45.143 24.9547 47.5058 26.0994 49.204 29.0898L45.1797 31.6742C44.2935 30.0867 43.334 29.4592 41.8572 29.4592C40.3434 29.4592 39.3835 30.4191 39.3835 31.6742C39.3835 33.2247 40.3434 33.8525 42.5584 34.8126L43.8505 35.3663C48.2438 37.2494 50.7175 39.1688 50.7175 43.4882C50.7175 48.1405 47.0626 50.6877 42.1524 50.6877C37.353 50.6877 34.2517 48.3987 32.7381 45.4081Z" fill="#323330"/>
</g>
<defs>
<clipPath id="clip0_15_311">
<rect width="55" height="55" fill="white"/>
</clipPath>
</defs>
</svg>
