<svg width="57" height="55" viewBox="0 0 57 55" fill="none" xmlns="http://www.w3.org/2000/svg">
<g clip-path="url(#clip0_1_502)">
<path d="M47.5101 0H9.80992C4.63506 0 0.440002 4.18614 0.440002 9.35V45.562C0.440002 50.7259 4.63506 54.912 9.80992 54.912H47.5101C52.6849 54.912 56.88 50.7259 56.88 45.562V9.35C56.88 4.18614 52.6849 0 47.5101 0Z" fill="#001E36"/>
<path d="M13.1487 38.5077V14.3653C13.1487 14.1892 13.2244 14.101 13.376 14.1009L13.6156 14.1002L14.0253 14.0958L14.5945 14.0846L16.5016 14.0444L18.5464 14.0065C19.2656 13.994 19.9786 13.9877 20.6854 13.9876C22.6035 13.9876 24.2189 14.2269 25.5317 14.7055C26.7162 15.1049 27.7963 15.7632 28.6933 16.6322C29.4538 17.3854 30.0416 18.2942 30.416 19.296C30.7701 20.2709 30.9495 21.3003 30.9462 22.3373C30.9462 24.3526 30.4792 26.015 29.5452 27.3244C28.6317 28.6019 27.3576 29.5789 25.8854 30.1308L25.7591 30.177C24.2217 30.7492 22.5193 30.956 20.6521 30.969L20.362 30.9698L19.9314 30.9676L19.7142 30.9646L19.4722 30.9588L19.3262 30.9531L19.2376 30.9485L19.0195 30.9406L18.753 30.9351L18.3517 30.9322L18.2625 30.932V38.4699C18.2691 38.5161 18.2649 38.5632 18.2501 38.6075C18.2353 38.6517 18.2104 38.692 18.1773 38.725C18.1442 38.758 18.1039 38.7829 18.0595 38.7976C18.0151 38.8124 17.9679 38.8166 17.9216 38.81H13.4139C13.2369 38.8101 13.1485 38.7094 13.1487 38.5077ZM18.2627 18.6347V26.5089C18.5904 26.5343 18.8932 26.5469 19.171 26.5467H20.4206C21.2822 26.5438 22.1387 26.4158 22.9633 26.1668L23.1278 26.1155C23.878 25.8934 24.5484 25.4605 25.0588 24.8686C25.5333 24.3102 25.779 23.5408 25.7961 22.5603L25.7972 22.4506C25.817 21.7197 25.6266 20.9986 25.248 20.3727C24.8503 19.7672 24.2752 19.2988 23.6011 19.0313C22.721 18.6898 21.7809 18.5292 20.8371 18.5592L20.3569 18.5605L20.054 18.5632L19.7649 18.5669L19.3571 18.5748L19.0594 18.5832L18.9049 18.5889L18.6983 18.5986L18.5224 18.6094L18.4221 18.6173L18.3354 18.6256L18.2973 18.63L18.2627 18.6347ZM45.5854 25.0771C44.9248 24.7385 44.2243 24.4841 43.5002 24.3199L43.3326 24.2838C42.536 24.1014 41.7227 24.001 40.9055 23.984L40.7013 23.9815C40.2223 23.9686 39.7439 24.0258 39.2815 24.1516C38.9872 24.2172 38.7256 24.3844 38.5429 24.6237C38.4195 24.8153 38.3538 25.0383 38.3538 25.2661C38.3607 25.487 38.4405 25.6995 38.5809 25.8705C38.7818 26.1049 39.0234 26.3014 39.2941 26.4506L39.3761 26.4939C39.9159 26.784 40.4721 27.0425 41.0419 27.2683C42.3125 27.6931 43.5267 28.2703 44.6576 28.9874C45.4281 29.4726 46.0657 30.1413 46.5131 30.9333C46.8891 31.6832 47.0774 32.5128 47.0621 33.3511C47.0845 34.4583 46.7674 35.5459 46.1533 36.4683C45.4957 37.4045 44.5823 38.1322 43.5218 38.5649C42.4112 39.0518 41.0475 39.3035 39.4305 39.3199L39.2625 39.3208C38.2602 39.3308 37.2592 39.2432 36.2739 39.0595L36.0631 39.0185C35.2335 38.8667 34.4259 38.6129 33.6589 38.2628C33.5817 38.2232 33.5166 38.1638 33.47 38.0907C33.4234 38.0177 33.3972 37.9336 33.3939 37.847V33.7291C33.3893 33.6891 33.3958 33.6487 33.4125 33.612C33.4292 33.5754 33.4555 33.544 33.4887 33.5212C33.5212 33.5028 33.5585 33.4947 33.5957 33.4981C33.6329 33.5015 33.6682 33.5161 33.6968 33.5401C34.6027 34.073 35.5862 34.4618 36.6121 34.6925C37.5163 34.9187 38.4439 35.0392 39.3761 35.0515C40.2593 35.0515 40.9092 34.9381 41.3259 34.7114C41.514 34.6253 41.6731 34.4868 41.7839 34.3125C41.8948 34.1381 41.9527 33.9355 41.9507 33.7291C41.9507 33.402 41.7614 33.0872 41.3828 32.7846C41.2241 32.6579 40.9965 32.52 40.7 32.371L40.5582 32.3015L40.407 32.2304L40.3276 32.1944L40.1614 32.1209L40.0747 32.0835L39.894 32.0078L39.7998 31.9693L39.6045 31.8912L39.5031 31.8516L39.293 31.7709L39.0732 31.6888C37.8841 31.2762 36.7569 30.7043 35.7223 29.9886C34.9821 29.4751 34.3728 28.7958 33.9429 28.0051C33.5707 27.2606 33.3824 26.438 33.3939 25.606C33.3915 24.6063 33.6667 23.6256 34.1889 22.7724C34.7842 21.833 35.6387 21.085 36.65 20.6191C37.7604 20.0652 39.1486 19.7881 40.8146 19.7877C41.7905 19.7798 42.7653 19.8494 43.7301 19.9956C44.4287 20.0841 45.1117 20.2684 45.7598 20.5434C45.864 20.5733 45.948 20.6501 45.9868 20.7513C46.0126 20.8435 46.0252 20.9387 46.0248 21.0346V24.8505C46.0303 24.9407 45.9868 25.0272 45.9112 25.0771C45.8606 25.1022 45.8048 25.1153 45.7483 25.1153C45.6918 25.1153 45.636 25.1022 45.5854 25.0771Z" fill="#31A8FF"/>
</g>
<defs>
<clipPath id="clip0_1_502">
<rect width="56.44" height="55" fill="white" transform="translate(0.440002)"/>
</clipPath>
</defs>
</svg>
