<svg width="58" height="55" viewBox="0 0 58 55" fill="none" xmlns="http://www.w3.org/2000/svg">
<g clip-path="url(#clip0_1_505)">
<path d="M10.8745 0H47.3255C52.8518 0 57.32 4.45874 57.32 9.97326V44.9387C57.32 50.4533 52.8518 54.912 47.3255 54.912H10.8745C5.34824 54.912 0.880005 50.4533 0.880005 44.9387V9.97326C0.880005 4.45874 5.34824 0 10.8745 0Z" fill="#00005B"/>
<path d="M14.2845 38.5088V14.3616C14.2845 14.1973 14.355 14.1035 14.5197 14.1035L14.861 14.1029L15.1251 14.1007L15.3114 14.0972L15.5099 14.0921L15.723 14.0846L15.8366 14.08C16.0482 14.0712 16.2632 14.0657 16.4826 14.0611L17.1561 14.047C17.2327 14.0452 17.3099 14.0432 17.3878 14.0408L17.6237 14.0331C17.8354 14.0255 18.0523 14.0196 18.2745 14.0155L18.9564 14.0034L19.4285 13.9931L19.6699 13.9861C20.1558 13.9707 20.6313 13.9654 21.1034 13.9636L21.8097 13.9627C23.7382 13.9627 25.3372 14.1973 26.6543 14.6901C27.8348 15.0902 28.9112 15.7475 29.8055 16.6144C30.5631 17.3732 31.1486 18.2855 31.5223 19.2896C31.875 20.2752 32.0631 21.2843 32.0631 22.3403C32.0631 24.3585 31.5927 26.0246 30.6521 27.3387C29.7113 28.6528 28.3945 29.6384 26.866 30.2016C25.32 30.7688 23.6205 30.9848 21.767 30.9987H21.0948L20.8331 30.996L20.6653 30.9921L20.5665 30.9879L20.4779 30.9826L20.3987 30.976C20.348 30.9711 20.2971 30.9673 20.2462 30.9646L20.1315 30.9595L20.0059 30.9562L19.7962 30.9533L19.3877 30.9525V38.4853C19.411 38.6496 19.2935 38.7904 19.1288 38.8139H14.5667C14.3786 38.8139 14.2845 38.72 14.2845 38.5088ZM19.411 18.6325V26.5173L19.6875 26.5371C19.9007 26.5534 20.1144 26.5625 20.3282 26.5643H21.5747C22.4919 26.5643 23.409 26.4235 24.279 26.1419C25.0317 25.9307 25.69 25.4848 26.2074 24.8981C26.7013 24.3115 26.9365 23.5136 26.9365 22.4811C26.9586 21.7478 26.7709 21.0233 26.3955 20.3925C26.0125 19.8079 25.4781 19.3525 24.8341 19.0883L24.7495 19.0549C23.8793 18.7029 22.9385 18.5621 21.9744 18.5856L21.4308 18.5863L21.1752 18.5878L20.9312 18.5911L20.6995 18.5964C20.5864 18.5993 20.4784 18.6036 20.3754 18.6091C20.3248 18.6066 20.2743 18.6046 20.2237 18.603L20.0828 18.5999L20.0167 18.5995L19.8919 18.6001L19.7786 18.6032L19.7261 18.6054L19.6297 18.6109L19.5451 18.6175L19.5069 18.621L19.4401 18.6287L19.411 18.6325ZM35.3553 19.9936H39.4708C39.6928 19.9936 39.8732 20.1401 39.9519 20.3344L39.9647 20.3691C40.0352 20.5568 40.0822 20.7445 40.1058 20.9557C40.1527 21.1904 40.1999 21.4485 40.2233 21.6832L40.2431 21.9102C40.2586 22.1041 40.2705 22.3102 40.2705 22.528C40.944 21.7434 41.7517 21.0843 42.6559 20.5812L42.7867 20.5099C43.8685 19.8997 45.1148 19.5947 46.3611 19.5947C46.5258 19.5712 46.6669 19.6885 46.6905 19.8528V24.5227C46.6905 24.7104 46.5728 24.7808 46.3142 24.7808C45.524 24.7588 44.7136 24.8189 43.9397 24.9795L43.7744 25.0155C43.0924 25.1563 42.4339 25.3675 41.799 25.6491C41.3521 25.8603 40.9288 26.1419 40.5996 26.5173V38.4853C40.5996 38.72 40.5055 38.8139 40.2938 38.8139H35.6611C35.4731 38.8373 35.3084 38.72 35.2848 38.5323V25.4379C35.2848 24.8747 35.2848 24.288 35.2614 23.6779L35.2473 23.2203L35.2284 22.3051C35.2248 22.1526 35.2201 22.0001 35.2142 21.8475C35.2142 21.3077 35.1673 20.7915 35.1203 20.2517C35.0967 20.1344 35.1673 20.0171 35.2848 19.9936C35.2848 19.9736 35.3194 19.9707 35.3441 19.9848L35.3553 19.9936Z" fill="#9999FF"/>
</g>
<defs>
<clipPath id="clip0_1_505">
<rect width="56.44" height="55" fill="white" transform="translate(0.880005)"/>
</clipPath>
</defs>
</svg>
