<svg width="86" height="60" viewBox="0 0 86 60" fill="none" xmlns="http://www.w3.org/2000/svg">
<g clip-path="url(#clip0_107_470)">
<path d="M83.4521 9.35833C82.9626 7.54952 82.0078 5.90048 80.6828 4.57543C79.3578 3.25037 77.7089 2.29554 75.9001 1.806C69.2781 0 42.6267 0 42.6267 0C42.6267 0 15.9741 0.0546665 9.35206 1.86067C7.54322 2.35023 5.8942 3.30512 4.5692 4.63023C3.2442 5.95535 2.28946 7.60446 1.80006 9.41333C-0.202943 21.1793 -0.979943 39.108 1.85506 50.4033C2.34451 52.2122 3.29928 53.8612 4.62427 55.1862C5.94927 56.5113 7.59826 57.4661 9.40706 57.9557C16.0291 59.7617 42.6811 59.7617 42.6811 59.7617C42.6811 59.7617 69.3327 59.7617 75.9544 57.9557C77.7632 57.4662 79.4123 56.5114 80.7374 55.1863C82.0624 53.8613 83.0172 52.2122 83.5067 50.4033C85.6194 38.6207 86.2704 20.703 83.4521 9.35833Z" fill="#FF0000"/>
<path d="M34.1437 42.6867L56.253 29.8807L34.1437 17.0747V42.6867Z" fill="white"/>
</g>
<defs>
<clipPath id="clip0_107_470">
<rect width="85.34" height="60" fill="white"/>
</clipPath>
</defs>
</svg>
